HIERARCHY
ROOT Hips
{
	OFFSET 0.0000 0.0000 0.0000
	CHANNELS 6 Xposition Yposition Zposition Zrotation Xrotation Yrotation
	JOINT Spine1
	{
		OFFSET -0.0137 5.0038 -0.0537
		CHANNELS 3 Zrotation Xrotation Yrotation
		JOINT Spine2
		{
			OFFSET -0.0000 7.1253 -0.0298
			CHANNELS 3 Zrotation Xrotation Yrotation
			JOINT Chest
			{
				OFFSET -0.0000 7.5501 -0.8160
				CHANNELS 3 Zrotation Xrotation Yrotation
				JOINT Neck1
				{
					OFFSET -0.1817 26.3113 -0.5533
					CHANNELS 3 Zrotation Xrotation Yrotation
					JOINT Neck2
					{
						OFFSET -0.0000 7.7094 2.3026
						CHANNELS 3 Zrotation Xrotation Yrotation
						JOINT Head
						{
							OFFSET -0.0000 6.1289 1.9537
							CHANNELS 3 Zrotation Xrotation Yrotation
							JOINT Jaw
							{
								OFFSET 0.0026 0.4756 3.0949
								CHANNELS 3 Zrotation Xrotation Yrotation
								End Site
								{
									OFFSET 0.0 1.0 0.0
								}
							}
							JOINT LeftEye
							{
								OFFSET 3.2064 5.3802 7.5869
								CHANNELS 3 Zrotation Xrotation Yrotation
								End Site
								{
									OFFSET 0.0 1.0 0.0
								}
							}
							JOINT RightEye
							{
								OFFSET -3.2224 5.3619 7.5582
								CHANNELS 3 Zrotation Xrotation Yrotation
								End Site
								{
									OFFSET 0.0 1.0 0.0
								}
							}
						}
					}
				}
				JOINT LeftShoulder
				{
					OFFSET 1.6217 23.2372 5.1134
					CHANNELS 3 Zrotation Xrotation Yrotation
					JOINT LeftArm
					{
						OFFSET 14.9198 0.0000 -5.5023
						CHANNELS 3 Zrotation Xrotation Yrotation
						JOINT LeftForeArm
						{
							OFFSET 28.7393 0.0000 -0.0026
							CHANNELS 3 Zrotation Xrotation Yrotation
							JOINT LeftHand
							{
								OFFSET 27.0940 -0.0000 0.0026
								CHANNELS 3 Zrotation Xrotation Yrotation
								JOINT LeftHandThumbEnd
								{
									OFFSET 12.2686 -3.2202 4.8331
									CHANNELS 3 Zrotation Xrotation Yrotation
									End Site
									{
										OFFSET 0.0 1.0 0.0
									}
								}
								JOINT LeftHandMiddleEnd
								{
									OFFSET 19.0120 -0.3129 -0.0340
									CHANNELS 3 Zrotation Xrotation Yrotation
									End Site
									{
										OFFSET 0.0 1.0 0.0
									}
								}
							}
						}
					}
				}
				JOINT RightShoulder
				{
					OFFSET -1.3801 23.1803 5.2142
					CHANNELS 3 Zrotation Xrotation Yrotation
					JOINT RightArm
					{
						OFFSET -15.0372 0.0000 -5.5456
						CHANNELS 3 Zrotation Xrotation Yrotation
						JOINT RightForeArm
						{
							OFFSET -28.7366 0.0000 -0.0026
							CHANNELS 3 Zrotation Xrotation Yrotation
							JOINT RightHand
							{
								OFFSET -27.1336 -0.0000 0.0026
								CHANNELS 3 Zrotation Xrotation Yrotation
								JOINT RightHandThumbEnd
								{
									OFFSET -12.2642 -3.2115 4.8040
									CHANNELS 3 Zrotation Xrotation Yrotation
									End Site
									{
										OFFSET 0.0 1.0 0.0
									}
								}
								JOINT RightHandMiddleEnd
								{
									OFFSET -19.0006 -0.3066 -0.0316
									CHANNELS 3 Zrotation Xrotation Yrotation
									End Site
									{
										OFFSET 0.0 1.0 0.0
									}
								}
							}
						}
					}
				}
			}
		}
	}
	JOINT LeftLeg
	{
		OFFSET 10.0432 -8.4345 2.5957
		CHANNELS 3 Zrotation Xrotation Yrotation
		JOINT LeftShin
		{
			OFFSET -0.0000 -43.2218 -0.8029
			CHANNELS 3 Zrotation Xrotation Yrotation
			JOINT LeftFoot
			{
				OFFSET 0.0000 -42.1551 -3.4815
				CHANNELS 3 Zrotation Xrotation Yrotation
				JOINT LeftToeBase
				{
					OFFSET 0.0000 -5.0595 13.2315
					CHANNELS 3 Zrotation Xrotation Yrotation
					End Site
					{
						OFFSET 0.0 1.0 0.0
					}
				}
			}
		}
	}
	JOINT RightLeg
	{
		OFFSET -10.0473 -8.2953 2.6203
		CHANNELS 3 Zrotation Xrotation Yrotation
		JOINT RightShin
		{
			OFFSET 0.0000 -43.3622 -0.8056
			CHANNELS 3 Zrotation Xrotation Yrotation
			JOINT RightFoot
			{
				OFFSET 0.0000 -42.1174 -3.4784
				CHANNELS 3 Zrotation Xrotation Yrotation
				JOINT RightToeBase
				{
					OFFSET -0.0000 -5.0796 13.2842
					CHANNELS 3 Zrotation Xrotation Yrotation
					End Site
					{
						OFFSET 0.0 1.0 0.0
					}
				}
			}
		}
	}
}
MOTION
Frames: 9
Frame Time: 0.033333
-0.1420 101.0888 4.9536 1.6582 -1.2726 -0.0185 -0.2982 -0.9056 -0.2381 -0.7676 -5.0731 -0.5248 -1.8581 12.6020 -2.8509 -0.4531 -11.4512 2.4024 -1.3970 -3.5494 -2.0384 -1.3675 -6.6250 -3.4847 0.0386 0.0280 0.0049 0.7458 -10.3915 -3.8524 -0.6745 -10.4141 3.8538 -21.2546 11.5390 -10.9901 -53.3262 11.6017 -29.3266 0.6536 0.3510 -34.8639 -1.7597 -18.7251 10.0915 -15.9736 10.6963 15.4961 -60.5112 1.8113 2.4972 24.5673 9.9503 14.6246 53.3548 9.4196 23.0209 0.2255 0.0005 32.1709 -7.6780 -18.5171 -3.1798 15.4110 7.3185 -16.0695 49.5765 -3.7075 -4.9818 -1.5231 1.3326 -0.7517 0.0665 1.7963 0.1193 -0.1829 -2.0503 7.9982 1.6395 -0.0278 -1.9538 -5.0364 1.9070 -3.7809 0.0128 1.8282 -0.0427 5.1685 -2.1694 -1.6133 -1.4291 0.2547 1.0111
-0.1013 101.0913 5.0379 1.6159 -1.1645 -0.0714 -0.2879 -0.8751 -0.2619 -0.7520 -5.0372 -0.4693 -1.8146 12.5587 -2.8968 -0.4141 -11.6711 2.3844 -1.3874 -3.5275 -1.9649 -1.3284 -6.7575 -3.4716 0.0389 0.0259 0.0150 0.7461 -10.3678 -3.8362 -0.6737 -10.3920 3.8572 -21.1861 11.5640 -10.9651 -53.3706 11.3545 -29.0156 0.5144 0.2993 -34.9869 -1.5787 -18.6608 10.0168 -15.9740 10.6770 15.4392 -60.4814 1.8273 2.4426 24.4199 9.9654 14.6770 53.5104 9.3778 23.1885 0.1396 -0.0081 31.9354 -7.5616 -18.4197 -3.1160 15.4386 7.3179 -16.0908 49.7046 -3.6769 -5.0089 -1.5721 1.3270 -0.7895 0.0530 1.7649 0.0762 -0.2470 -2.2274 8.1272 1.6401 -0.0687 -1.9822 -5.0580 1.8849 -3.6477 0.0128 1.7876 -0.0289 5.2079 -2.2384 -1.6193 -1.4319 0.1835 1.0038
0.0354 101.0961 5.2238 1.5900 -1.0190 -0.1656 -0.2800 -0.8218 -0.2588 -0.7406 -5.0321 -0.4650 -1.7731 12.5657 -2.8954 -0.3612 -11.9601 2.3870 -1.3586 -3.5423 -1.9137 -1.3178 -6.8737 -3.4963 0.0384 0.0194 0.0101 0.7420 -10.3651 -3.8367 -0.6701 -10.3869 3.8485 -21.0655 11.6020 -10.9718 -53.4422 11.1167 -28.7108 0.4445 0.2589 -35.1788 -1.4553 -18.6807 10.0130 -15.9659 10.7061 15.4645 -60.4953 1.8423 2.4814 24.2512 9.9626 14.7770 53.6302 9.3676 23.3183 0.0973 -0.0525 31.7807 -7.5408 -18.4345 -3.0715 15.4584 7.3342 -16.0889 49.7593 -3.6826 -5.0346 -1.6462 1.2629 -0.8606 0.0467 1.7749 0.0471 -0.2411 -2.4005 8.2724 1.6416 -0.0841 -1.9939 -5.1036 1.7993 -3.5171 0.0147 1.7890 -0.0183 5.2894 -2.3178 -1.6549 -1.4326 0.1803 0.9979
0.2005 101.0861 5.4085 1.5725 -0.8435 -0.2418 -0.2872 -0.7545 -0.2783 -0.7244 -5.0233 -0.4569 -1.7247 12.5725 -2.8719 -0.3460 -12.2356 2.3987 -1.3259 -3.5629 -1.8663 -1.2399 -7.0529 -3.5267 0.0342 0.0113 -0.0015 0.7315 -10.3717 -3.8474 -0.6680 -10.3874 3.8355 -20.9269 11.6482 -11.0085 -53.4908 10.9105 -28.4946 0.4164 0.2424 -35.3362 -1.3469 -18.6104 9.9702 -15.9375 10.7162 15.4733 -60.4902 1.8503 2.5103 24.0470 9.9528 14.8715 53.7754 9.3808 23.4101 0.0251 -0.0682 31.7171 -7.4939 -18.5651 -3.0502 15.4786 7.3423 -16.0798 49.7393 -3.6863 -5.0559 -1.7418 1.1624 -0.9232 0.0520 1.7941 0.0359 -0.2042 -2.5815 8.4015 1.6430 -0.0836 -1.9990 -5.1756 1.6823 -3.4163 0.0168 1.7839 -0.0155 5.3897 -2.3982 -1.6782 -1.4317 0.1649 0.9784
0.3396 101.0795 5.5148 1.5536 -0.6135 -0.2986 -0.2913 -0.6849 -0.2519 -0.7079 -5.0268 -0.4914 -1.6948 12.5954 -2.8681 -0.3423 -12.5421 2.4210 -1.2854 -3.5692 -1.8079 -1.1216 -7.3310 -3.5429 0.0299 0.0053 -0.0130 0.7245 -10.3818 -3.8586 -0.6691 -10.3890 3.8251 -20.7771 11.6966 -11.0462 -53.5089 10.6901 -28.2967 0.4093 0.2284 -35.4923 -1.2092 -18.4688 9.9480 -15.8899 10.7112 15.4354 -60.4714 1.8596 2.5040 23.8312 9.9588 14.9852 53.8964 9.4311 23.4793 -0.0324 -0.0753 31.7745 -7.5061 -18.7791 -2.9980 15.4851 7.3607 -16.0882 49.7314 -3.6798 -5.0654 -1.8457 1.0008 -1.0140 0.0566 1.8270 0.0333 -0.1235 -2.7450 8.5517 1.6431 -0.0772 -2.0017 -5.2472 1.5119 -3.3039 0.0200 1.7856 -0.0139 5.4982 -2.4552 -1.6906 -1.4341 0.1718 0.9711
0.5263 101.0687 5.6347 1.5346 -0.3224 -0.3620 -0.3032 -0.6333 -0.2337 -0.6903 -5.0228 -0.5092 -1.6619 12.6090 -2.8729 -0.3555 -12.8658 2.4327 -1.2466 -3.5650 -1.7280 -0.9814 -7.6246 -3.5318 0.0253 0.0063 -0.0234 0.7217 -10.3728 -3.8662 -0.6755 -10.3769 3.8137 -20.6384 11.7236 -11.0739 -53.5180 10.5103 -28.1583 0.4268 0.2103 -35.5755 -1.1024 -18.2954 9.8927 -15.8282 10.7338 15.4202 -60.4429 1.8883 2.4855 23.6295 9.9593 15.0964 53.9958 9.5005 23.4886 -0.1008 -0.0769 31.9178 -7.4864 -18.9234 -2.9976 15.4730 7.3605 -16.0922 49.6848 -3.6917 -5.0579 -1.9712 0.7916 -1.1226 0.0612 1.8540 0.0473 0.0063 -2.8997 8.6960 1.6447 -0.0677 -2.0081 -5.3181 1.3003 -3.1913 0.0241 1.7681 -0.0085 5.5928 -2.4963 -1.7057 -1.4359 0.1831 0.9627
0.7179 101.0589 5.7546 1.5196 0.0056 -0.4330 -0.3148 -0.5789 -0.2110 -0.6692 -5.0155 -0.5162 -1.6469 12.6111 -2.8857 -0.3947 -13.2175 2.4252 -1.2021 -3.5582 -1.5898 -0.8140 -7.9544 -3.5263 0.0237 0.0069 -0.0256 0.7210 -10.3691 -3.8659 -0.6776 -10.3695 3.8087 -20.4979 11.7136 -11.0904 -53.5508 10.3707 -28.0345 0.4625 0.1987 -35.6315 -1.0472 -18.1351 9.8810 -15.7833 10.7503 15.3922 -60.4381 1.9080 2.4671 23.4567 9.9555 15.2353 54.0940 9.5978 23.3770 -0.1615 -0.0865 32.1838 -7.5018 -19.0754 -2.9932 15.4668 7.3562 -16.0904 49.6457 -3.7058 -5.0644 -2.1050 0.5528 -1.2518 0.0615 1.8832 0.0708 0.1329 -3.0689 8.8533 1.6458 -0.0720 -2.0151 -5.4102 1.0613 -3.0793 0.0318 1.7593 0.0034 5.6869 -2.5371 -1.7249 -1.4378 0.1547 0.9637
0.9232 101.0373 5.8639 1.4986 0.3549 -0.4704 -0.3214 -0.5243 -0.2143 -0.6468 -4.9934 -0.4813 -1.6414 12.6042 -2.9037 -0.4325 -13.5703 2.4030 -1.1653 -3.5538 -1.4525 -0.6322 -8.2865 -3.4896 0.0210 0.0087 -0.0297 0.7176 -10.3629 -3.8662 -0.6795 -10.3598 3.8017 -20.3590 11.6912 -11.0957 -53.5748 10.1996 -27.8503 0.4676 0.1849 -35.6756 -0.9607 -17.9705 9.8501 -15.7219 10.7665 15.3753 -60.4331 1.9111 2.4790 23.2842 9.9779 15.3793 54.2111 9.6460 23.1707 -0.2043 -0.0867 32.4688 -7.4944 -19.1460 -3.0137 15.4737 7.3456 -16.0879 49.6121 -3.7186 -5.0702 -2.2448 0.3031 -1.3972 0.0636 1.9248 0.0855 0.2498 -3.2423 9.0352 1.6454 -0.0839 -2.0218 -5.4975 0.8279 -2.9712 0.0359 1.7500 0.0229 5.7382 -2.5969 -1.8006 -1.4371 0.1139 0.9647
1.1416 101.0494 6.0280 1.4709 0.7220 -0.4729 -0.3271 -0.4635 -0.2113 -0.6307 -4.9735 -0.4613 -1.6501 12.5898 -2.9252 -0.4391 -13.9076 2.3795 -1.1403 -3.5427 -1.3383 -0.4725 -8.6081 -3.4765 0.0182 0.0111 -0.0323 0.7128 -10.3554 -3.8652 -0.6804 -10.3552 3.7961 -20.1982 11.7018 -11.1171 -53.6202 9.9372 -27.5759 0.4382 0.1547 -35.6840 -0.8364 -17.8118 9.7772 -15.6398 10.7944 15.3694 -60.4275 1.9216 2.4948 23.1007 10.0243 15.5445 54.3560 9.6928 22.9123 -0.2191 -0.1077 32.7684 -7.4211 -19.1729 -3.0543 15.4626 7.3404 -16.0791 49.5649 -3.7412 -5.0941 -2.3919 0.0570 -1.5613 0.0633 1.9716 0.1030 0.3649 -3.4512 9.2059 1.6465 -0.0663 -2.0229 -5.5852 0.6111 -2.8361 0.0380 1.7567 0.0446 5.7873 -2.7037 -1.9532 -1.4362 0.0811 0.9616
